<?xml version="1.0" encoding="utf-8"?>
<!-- Generator: Adobe Illustrator 26.2.1, SVG Export Plug-In . SVG Version: 6.00 Build 0)  -->
<svg version="1.1" id="Layer_1" xmlns="http://www.w3.org/2000/svg" xmlns:xlink="http://www.w3.org/1999/xlink" x="0px" y="0px"
	 viewBox="0 0 700 700" style="enable-background:new 0 0 700 700;" xml:space="preserve">
<g>
	<path d="M229.6,543.2c-23,0-44.8-16.8-51-38.6l-51.5-207.8c-0.6-1.7-1.1-6.7-1.1-8.4c0-14.6,8.4-25.2,23-29.7
		c2.2-0.6,4.5-1.1,7.8-1.1c14.6,0,27.4,9.5,31.4,23.5L238,490c1.7,6.2-2.2,12.3-8.4,13.4c-6.2,1.7-12.3-2.2-13.4-8.4l-49.8-208.9
		c-1.1-4.5-5.6-6.7-9.5-6.7c-0.6,0-0.6,0-1.7,0.6c-5.6,1.7-6.7,3.9-6.7,7.8c0,0.6,0,2.8,0.6,3.4l51.5,206.6
		c3.4,12.3,16.2,21.8,29.1,21.8c2.2,0,5,0,7.3-0.6c12.3-2.8,18.5-15.7,17.9-26.3c0-3.9-0.6-7.8-1.1-9L193.8,252
		c-0.6-1.7-0.6-3.9-0.6-5.6c0-10.6,6.7-19,17.4-21.3l277.8-67.8c1.1-0.6,3.4-0.6,5-0.6c10.1,0,19.6,7.3,21.8,16.8l57.7,224.6
		c1.1,6.2,1.1,15.1,1.1,16.2c0,22.4-15.1,42-36.4,47.6l-294,79.5C239.1,542.6,234.6,543.2,229.6,543.2L229.6,543.2z M215.6,246.4
		l59.9,232.4c1.1,3.9,1.7,10.6,1.7,13.4c0.6,6.2-0.6,11.8-2.2,17.4l256.5-69.4c11.8-3.4,19.6-14,19.6-26.3c0-3.9-0.6-8.4-1.1-10.6
		l-56.6-224L215.6,246.4z M310.8,459.2c-5,0-9.5-3.4-10.6-8.4c-1.7-6.2,2.2-12.3,7.8-13.4L504,387c6.2-1.7,12.3,2.2,13.4,7.8
		c1.1,5.6-2.2,12.3-7.8,13.4l-196,50.4C312.5,459.2,311.9,459.2,310.8,459.2L310.8,459.2z M299.6,414.4c-5,0-9.5-3.4-10.6-8.4
		c-1.7-6.2,2.2-12.3,7.8-13.4l196-50.4c6.2-1.7,12.3,2.2,13.4,7.8c1.7,6.2-2.2,12.3-7.8,13.4l-196,50.4
		C301.3,414.4,300.7,414.4,299.6,414.4L299.6,414.4z M294,364c-10.1,0-19-6.7-21.8-16.8L255.4,285c-0.6-1.7-0.6-3.4-0.6-5
		c0-11.2,6.2-19,16.8-21.8l62.2-16.8c1.7-0.6,3.9-0.6,5.6-0.6c10.6,0,19,6.7,21.8,16.8l16.8,62.2c0.6,1.7,0.6,3.9,0.6,5.6
		c0,10.1-6.7,19-16.8,21.8L299.6,364C297.4,364,295.7,364,294,364z M277.2,279.4L277.2,279.4l16.8,62.2l61.6-16.8l-16.8-61.6
		L277.2,279.4z M417.2,336c-5,0-9.5-3.4-10.6-8.4c-1.7-6.2,2.2-12.3,8.4-13.4l67.2-16.8c6.2-1.7,12.3,2.2,13.4,8.4
		c1.7,6.2-2.2,12.3-8.4,13.4L420,336H417.2L417.2,336z M406,291.2c-5,0-9.5-3.4-10.6-8.4c-1.7-6.2,2.2-12.3,8.4-13.4l67.2-16.8
		c6.2-1.7,12.3,2.2,13.4,8.4c1.7,6.2-2.2,12.3-8.4,13.4l-67.2,16.8H406L406,291.2z M394.8,252c-5,0-9.5-3.4-10.6-8.4
		c-1.7-6.2,2.2-12.3,8.4-13.4l67.2-16.8c6.2-1.7,12.3,2.2,13.4,8.4c1.7,6.2-2.2,12.3-8.4,13.4L397.6,252H394.8L394.8,252z"/>
</g>
</svg>
