<?xml version="1.0" encoding="utf-8"?>
<!-- Generator: Adobe Illustrator 26.2.1, SVG Export Plug-In . SVG Version: 6.00 Build 0)  -->
<svg version="1.1" id="Layer_1" xmlns="http://www.w3.org/2000/svg" xmlns:xlink="http://www.w3.org/1999/xlink" x="0px" y="0px"
	 viewBox="0 0 700 700" style="enable-background:new 0 0 700 700;" xml:space="preserve">
<g>
	<path d="M526.2,496.9c20.9-25,36.6-54.6,45.4-87.5c15.9-59.2,7.7-121.1-22.9-174.2c-30.7-53.1-80.2-91.1-139.4-106.9
		c-5-1.3-10.1-2.5-15.2-3.5c-0.2,0-0.4-0.1-0.6-0.1c-14.4-2.8-29.1-4.3-43.7-4.3c-98.2,0-185.1,62.9-216.8,154.7
		c-0.3,0.8-0.5,1.6-0.8,2.3c-1.4,4.3-2.8,8.7-4,13.2c-0.8,3-1.5,6-2.2,9.2c-12.7,56.4-3.9,114.6,25.1,165
		c30.7,53.1,80.2,91.1,139.4,107c19.5,5.2,39.5,7.9,59.5,7.9c57.7,0,111.4-21.7,152.4-58.2c0.1-0.1,0.3-0.3,0.4-0.4
		c4-3.5,7.8-7.2,11.5-11c0.3-0.3,0.5-0.5,0.8-0.8c3.8-3.9,7.4-7.9,10.8-12.1C526.1,497.1,526.2,497,526.2,496.9L526.2,496.9z
		 M307.4,514.2l-28.2-86.8l24-33.1h93.5l24.6,33.9l-28,86.1H307.4z M286,141.2l58.4,42.4v49.5l-77.9,56.6c-0.1,0.1-0.2,0.3-0.4,0.4
		l-39.6-12.9l-27.6-84.8C223.4,169,253.2,151.3,286,141.2L286,141.2z M501.1,192.4l-27.6,84.9l-39.6,12.9c-0.1-0.1-0.2-0.3-0.4-0.4
		l-77.9-56.6v-49.5l58.3-42.4C447,151.4,476.7,168.9,501.1,192.4L501.1,192.4z M523.6,419.3h-94.9l-23-31.6l27.8-85.7l43-14
		l72.5,52.7L523.6,419.3z M223.4,288l43,14l27.8,85.7l-23.4,32.2l-94.2,0l-25.7-79.1L223.4,288z M560.9,406.5
		c-4.4,16.4-10.6,31.9-18.4,46.4l-9-27.7l25.8-79.5c0.7-0.2,1.5-0.4,2.1-0.9l6.8-4.9C569.1,362.1,566.8,384.5,560.9,406.5
		L560.9,406.5z M131.8,340l6.7,4.9c0.6,0.5,1.4,0.7,2.1,0.9l26.4,81.3l-8.9,27.3C138.9,418.8,129.9,379.5,131.8,340L131.8,340z
		 M293.5,560.9c-8.7-2.3-17.2-5.2-25.4-8.6l37.1-27h91.5l36.5,26.5c-25.8,10.6-53.9,16.5-83,16.5C331.1,568.4,312,565.9,293.5,560.9
		L293.5,560.9z"/>
</g>
</svg>
