<?xml version="1.0" encoding="utf-8"?>
<!-- Generator: Adobe Illustrator 26.3.1, SVG Export Plug-In . SVG Version: 6.00 Build 0)  -->
<svg version="1.1" id="Layer_1" xmlns="http://www.w3.org/2000/svg" xmlns:xlink="http://www.w3.org/1999/xlink" x="0px" y="0px"
	 viewBox="0 0 700 700" style="enable-background:new 0 0 700 700;" xml:space="preserve">
<g>
	<path d="M299,271.9c3.7,2,7.1,4.4,10.4,6.9l10.8-19.1c-3.9-1.6-7.6-3.6-11.1-5.8L299,271.9z"/>
	<path d="M477.7,406.9c-3.6,2.1-7.3,4-11.2,5.5l19.7,34.7c3.5-2.3,7.1-4.3,11-6L477.7,406.9z"/>
	<path d="M202.9,441.1c3.8,1.7,7.5,3.7,10.9,6l19.7-34.7c-3.9-1.5-7.6-3.4-11.2-5.5L202.9,441.1z"/>
	<path d="M390.8,254c-3.5,2.2-7.2,4.1-11.1,5.8l10.8,19.1c3.3-2.6,6.7-4.9,10.4-6.9L390.8,254z"/>
	<path d="M343.8,265.4v169.2c2.1-0.2,4.1-0.3,6.2-0.3s4.2,0.1,6.2,0.3V265.4c-2.1,0.2-4.1,0.3-6.2,0.3
		C347.9,265.7,345.8,265.5,343.8,265.4L343.8,265.4z"/>
	<path d="M415.2,188c0-36-29.2-65.2-65.2-65.2c-36,0-65.2,29.2-65.2,65.2c0,36,29.2,65.2,65.2,65.2C386,253.2,415.2,224,415.2,188z"
		/>
	<path d="M327.2,340.2c0,36-29.2,65.2-65.2,65.2c-36,0-65.2-29.2-65.2-65.2c0-36,29.2-65.2,65.2-65.2
		C298,275,327.2,304.2,327.2,340.2"/>
	<path d="M503.3,340.2c0,36-29.2,65.2-65.2,65.2s-65.2-29.2-65.2-65.2c0-36,29.2-65.2,65.2-65.2S503.3,304.2,503.3,340.2"/>
	<path d="M594,512c0,36-29.2,65.2-65.2,65.2c-36,0-65.2-29.2-65.2-65.2s29.2-65.2,65.2-65.2C564.8,446.8,594,476,594,512"/>
	<path d="M415.2,512c0,36-29.2,65.2-65.2,65.2S284.8,548,284.8,512c0-36,29.2-65.2,65.2-65.2S415.2,476,415.2,512"/>
	<path d="M236.5,512c0,36-29.2,65.2-65.2,65.2c-36,0-65.2-29.2-65.2-65.2s29.2-65.2,65.2-65.2C207.3,446.8,236.5,476,236.5,512"/>
</g>
</svg>
