<?xml version="1.0" encoding="utf-8"?>
<!-- Generator: Adobe Illustrator 26.2.1, SVG Export Plug-In . SVG Version: 6.00 Build 0)  -->
<svg version="1.1" id="Layer_1" xmlns="http://www.w3.org/2000/svg" xmlns:xlink="http://www.w3.org/1999/xlink" x="0px" y="0px"
	 viewBox="0 0 700 700" style="enable-background:new 0 0 700 700;" xml:space="preserve">
<g>
	<path d="M467.8,116.8c-46.6-0.4-90.2,23.4-115.2,62.8c-0.6,0.9-1.6,1.5-2.7,1.5s-2.1-0.6-2.7-1.5c-25-39.4-68.5-63.1-115.2-62.8
		C151,117.3,92.1,187.3,98.5,268.3c12.1,153.1,191,279.7,239.5,311.3h0c3.6,2.3,7.8,3.6,12.1,3.6s8.5-1.2,12.1-3.6
		c48.5-31.6,227.4-158.2,239.5-311.4C607.9,187.3,549,117.3,467.8,116.8L467.8,116.8z M463.3,392H392v71.3h-84V392h-71.3v-84H308
		v-71.3h84V308h71.3L463.3,392z"/>
</g>
</svg>
