<?xml version="1.0" encoding="UTF-8"?>
<svg width="700pt" height="700pt" version="1.1" viewBox="0 0 700 700" xmlns="http://www.w3.org/2000/svg">
 <path d="m284.29 195.51c16.102 23.941 45.027 62.477 74.586 79.887 8.3281 4.8984 11.113 15.629 6.2109 23.957-4.8984 8.3125-15.645 11.094-23.957 6.1953-31.43-18.496-55.004-45.133-71.766-69.703l-51.609 139.49c10.379 21.035 29.328 55.492 45.656 63.227 8.7148 4.1484 12.441 14.578 8.3125 23.309-4.1289 8.7344-14.578 12.461-23.309 8.3125-11.918-5.6367-31.691-29.488-47.023-50.574l-17.219 46.551c-9.5742 25.848 0.89062 54.828 24.762 68.602l0.035156 0.015625c23.871 13.789 54.199 8.3477 71.801-12.844l93.906-113.1c-30.434-2.0469-63.754-7.8906-82.336-22.539-7.5938-5.9688-8.9062-16.992-2.9219-24.57 5.9688-7.5938 16.977-8.9062 24.57-2.9219 15.801 12.441 59.465 15.75 88.496 16.539l72.469-87.309c11.934-14.367 16.922-33.285 13.633-51.66-3.2891-18.391-14.523-34.406-30.711-43.734l-77.07-44.504c-16.188-9.3438-35.664-11.078-53.234-4.7422-17.57 6.3516-31.449 20.125-37.941 37.641l-5.3359 14.473zm64.715-64.629c12.547-0.015624 25.043 3.2539 36.172 9.6758l77.07 44.484c11.27 6.5117 20.422 15.855 26.688 26.914 24.359-20.195 54.863-49.316 65.379-68.773 7.1758-13.246 6.5273-24.676 2.1875-32.059-3.9375-6.7031-11.742-12.234-23.941-13.441-7.7344-0.75391-18.375 0.33203-30.344 2.6758 2.2578-11.988 3.2734-22.629 2.4492-30.344-1.2969-12.215-6.8789-19.969-13.613-23.852-6.7031-3.8672-16.137-4.8281-27.246 0.050782-6.9648 3.0469-15.488 9.0312-24.535 16.746-3.832-11.27-8.0664-20.789-12.477-26.969-7.0508-9.9062-15.629-13.895-23.379-14.016-8.5742-0.12109-18.863 4.9688-26.863 17.816-11.762 18.863-22.031 59.938-27.547 91.086z" fill-rule="evenodd"/>
</svg>
