<?xml version="1.0" encoding="utf-8"?>
<!-- Generator: Adobe Illustrator 26.3.1, SVG Export Plug-In . SVG Version: 6.00 Build 0)  -->
<svg version="1.1" id="Layer_1" xmlns="http://www.w3.org/2000/svg" xmlns:xlink="http://www.w3.org/1999/xlink" x="0px" y="0px"
	 viewBox="0 0 700 700" style="enable-background:new 0 0 700 700;" xml:space="preserve">
<g>
	<path d="M115.4,272.4c44.8,0,88.5,18.5,119.3,51l4.5,4.5l43.7-45.4l-2.2-2.2c-42.6-44.8-103-70.6-164.6-70.6
		c-17.4,0-31.4,14-31.4,31.4C84.1,258.4,98.1,272.4,115.4,272.4L115.4,272.4z"/>
	<path d="M608.8,445.5l-93.5-67.8c-11.8-8.4-28,0-28,14.6v35.8c-43.1-1.1-84-19.6-113.7-50.4l-4.5-5L325.4,418l2.2,2.2
		c41.4,43.7,99.1,68.9,159.6,70v36.4c0,14.6,16.2,23,28,14.6l93.5-67.8C618.3,466.8,618.3,452.2,608.8,445.5L608.8,445.5z"/>
	<path d="M487.3,272.4v35.8c0,14.6,16.2,23,28,14.6l93.5-67.8c9.5-7.3,9.5-21.3,0-28.6l-93.5-67.8c-11.8-8.4-28,0-28,14.6v36.4
		c-59.9,1.1-118.2,26.9-159.6,70l-93,97.4c-30.8,32.5-74.5,51-119.3,51c-17.4,0-31.4,14-31.4,31.4s14,31.4,31.4,31.4
		c61.6,0,122.1-25.8,164.6-70.6l93-97.4C403.3,292,444.1,274.1,487.3,272.4L487.3,272.4z"/>
</g>
</svg>
