<?xml version="1.0" standalone="no"?>
<!DOCTYPE svg PUBLIC "-//W3C//DTD SVG 20010904//EN"
 "http://www.w3.org/TR/2001/REC-SVG-20010904/DTD/svg10.dtd">
<svg version="1.0" xmlns="http://www.w3.org/2000/svg"
 width="700.000000pt" height="700.000000pt" viewBox="0 0 700.000000 700.000000"
 preserveAspectRatio="xMidYMid meet">
<metadata>
Created by potrace 1.14, written by Peter Selinger 2001-2017
</metadata>
<g transform="translate(0.000000,700.000000) scale(0.100000,-0.100000)"
fill="#000000" stroke="none">
<path d="M888 5670 c-123 -5 -129 -6 -155 -33 l-28 -27 -3 -1873 c-1 -1120 1
-1896 7 -1932 25 -163 114 -296 256 -387 73 -46 107 -60 190 -78 36 -8 690
-11 2342 -11 1981 0 2301 2 2362 15 209 44 381 217 427 431 19 86 20 2398 1
2434 -6 13 -24 33 -39 44 -27 20 -42 21 -432 21 -222 1 -408 5 -413 9 -4 5 -8
302 -8 660 l0 652 -23 32 c-17 24 -33 33 -65 38 -51 7 -4239 12 -4419 5z
m4284 -2053 c3 -2046 -3 -1862 73 -1997 19 -34 35 -64 35 -66 0 -2 -921 -3
-2047 -1 l-2048 2 -55 26 c-63 31 -128 88 -158 139 -48 85 -46 0 -47 1910 -1
987 1 1801 3 1807 3 10 455 13 2123 12 l2119 0 2 -1832z m903 -674 c-1 -1189
1 -1138 -52 -1230 -50 -87 -160 -153 -264 -158 -163 -8 -308 93 -350 245 -10
35 -13 297 -14 1135 -1 600 1 1096 3 1103 3 9 80 12 341 12 l337 0 -1 -1107z"/>
<path d="M1550 4863 c-16 -6 -37 -24 -47 -39 -17 -26 -18 -62 -20 -514 0 -275
3 -498 8 -516 5 -17 23 -41 40 -53 l31 -23 436 0 c270 0 447 4 463 10 15 6 36
23 48 38 21 26 21 32 21 526 0 546 1 538 -58 570 -33 17 -880 19 -922 1z m756
-565 l-1 -353 -297 -1 c-295 -1 -298 0 -298 20 -1 33 -1 628 -1 659 l1 27 298
0 299 0 -1 -352z"/>
<path d="M2998 4872 c-76 -20 -109 -93 -73 -162 32 -62 0 -60 837 -60 745 0
764 1 796 20 68 42 70 143 3 187 -24 16 -83 17 -788 18 -419 0 -768 -1 -775
-3z"/>
<path d="M3419 4057 c-57 -28 -75 -88 -44 -147 31 -60 21 -59 611 -60 522 0
540 1 572 20 68 42 70 143 3 187 -24 16 -72 17 -566 18 -499 0 -542 -1 -576
-18z"/>
<path d="M1540 3198 c-63 -38 -73 -120 -20 -173 l30 -30 1473 -3 c995 -2 1484
0 1508 7 45 14 68 39 76 85 7 45 -11 90 -46 113 -25 17 -103 18 -1509 18
-1394 1 -1485 0 -1512 -17z"/>
<path d="M1565 2409 c-94 -26 -107 -160 -19 -202 32 -16 154 -17 1505 -17
1597 0 1505 -3 1543 54 31 48 15 120 -33 153 -24 17 -112 18 -1497 18 -809 1
-1483 -2 -1499 -6z"/>
</g>
</svg>
